<svg width="35" height="35" viewBox="0 0 35 35" fill="none" xmlns="http://www.w3.org/2000/svg">
<path d="M23.3333 5.83325H26.25C27.0235 5.83325 27.7654 6.14054 28.3124 6.68752C28.8594 7.2345 29.1666 7.97637 29.1666 8.74992V29.1666C29.1666 29.9401 28.8594 30.682 28.3124 31.229C27.7654 31.776 27.0235 32.0833 26.25 32.0833H8.74998C7.97643 32.0833 7.23457 31.776 6.68758 31.229C6.1406 30.682 5.83331 29.9401 5.83331 29.1666V8.74992C5.83331 7.97637 6.1406 7.2345 6.68758 6.68752C7.23457 6.14054 7.97643 5.83325 8.74998 5.83325H11.6666" stroke="#1CDEB9" stroke-width="3" stroke-linecap="round" stroke-linejoin="round"/>
<path d="M21.875 2.91675H13.125C12.3196 2.91675 11.6667 3.56967 11.6667 4.37508V7.29175C11.6667 8.09716 12.3196 8.75008 13.125 8.75008H21.875C22.6804 8.75008 23.3334 8.09716 23.3334 7.29175V4.37508C23.3334 3.56967 22.6804 2.91675 21.875 2.91675Z" stroke="#1CDEB9" stroke-width="3" stroke-linecap="round" stroke-linejoin="round"/>
</svg>
