<svg width="472" height="337" viewBox="0 0 472 337" fill="none" xmlns="http://www.w3.org/2000/svg">
<g clip-path="url(#clip0_53_226)">
<path d="M47.1576 306.485L38.1492 314.783L45.3084 302.763C39.668 292.528 30.4432 283.683 30.4432 283.683C30.4432 283.683 11.3049 302.03 11.3049 316.453C11.3049 330.875 19.8734 335.91 30.4432 335.91C41.0128 335.91 49.5813 330.875 49.5813 316.453C49.5813 313.242 48.6318 309.838 47.1576 306.485Z" fill="#1CDEB9"/>
<path d="M35.8324 315.232V315.943C35.7902 324.206 34.3975 330.654 31.6647 335.194C31.626 335.26 31.5838 335.324 31.5451 335.391L31.2391 335.204L30.9472 335.021C33.9789 330.119 35.0516 323.189 35.0903 315.982C35.0938 315.75 35.0974 315.514 35.0938 315.278C35.0832 312.227 34.8969 309.141 34.5979 306.142C34.5768 305.91 34.5522 305.674 34.5276 305.438C34.1126 301.483 33.5147 297.703 32.9027 294.419C32.8605 294.187 32.8148 293.955 32.769 293.726C31.7104 288.173 30.6306 284.15 30.3844 283.26C30.3563 283.151 30.3387 283.091 30.3352 283.077L30.6693 282.982L30.6728 282.978L31.0105 282.883C31.014 282.897 31.0738 283.098 31.1723 283.471C31.5486 284.865 32.5264 288.648 33.4865 293.638C33.5287 293.863 33.5744 294.096 33.6166 294.328C34.1161 296.992 34.605 299.969 34.9918 303.094C35.0903 303.879 35.1782 304.653 35.2556 305.417C35.2837 305.653 35.3084 305.889 35.3295 306.121C35.6531 309.362 35.8207 312.399 35.8324 315.232Z" fill="white"/>
<path d="M33.4866 293.638C33.251 293.67 33.0118 293.702 32.7691 293.726C32.1101 293.794 31.448 293.828 30.7855 293.828C27.962 293.832 25.1736 293.202 22.6259 291.984C22.4781 292.171 22.3304 292.357 22.1792 292.547C24.8594 293.857 27.8031 294.535 30.7855 294.532C31.4928 294.532 32.1995 294.495 32.9028 294.42C33.142 294.395 33.3811 294.363 33.6167 294.328C35.5619 294.049 37.4534 293.476 39.2265 292.628C39.0753 292.435 38.9276 292.245 38.7834 292.058C37.1052 292.843 35.3203 293.376 33.4866 293.638V293.638Z" fill="white"/>
<path d="M35.2556 305.417C35.0129 305.431 34.7703 305.438 34.5276 305.438C34.4537 305.442 34.3764 305.442 34.3025 305.442C31.2431 305.442 28.229 304.702 25.5173 303.284C22.8055 301.867 20.4765 299.814 18.7288 297.302C18.5881 297.509 18.4475 297.717 18.3103 297.928C20.1319 300.471 22.5327 302.542 25.3138 303.971C28.0948 305.4 31.1762 306.146 34.3025 306.146C34.401 306.146 34.4994 306.146 34.5979 306.142C34.8441 306.139 35.0868 306.132 35.3294 306.121C39.0847 305.929 42.705 304.658 45.7576 302.461C45.6451 302.253 45.5325 302.046 45.4165 301.838C42.4497 303.995 38.9185 305.239 35.2556 305.417V305.417Z" fill="white"/>
<path d="M35.8325 315.232C35.5864 315.253 35.3402 315.267 35.094 315.278C34.8302 315.289 34.5664 315.296 34.3026 315.296C30.1916 315.291 26.1927 313.954 22.9046 311.485C19.6165 309.016 17.2162 305.547 16.063 301.599C15.9047 301.884 15.7465 302.165 15.5952 302.45C16.8946 306.39 19.4015 309.819 22.7597 312.251C26.118 314.684 30.1569 315.995 34.3026 315.999C34.5664 315.999 34.8302 315.996 35.0904 315.982C35.3402 315.975 35.5864 315.961 35.8326 315.943C40.8054 315.554 45.4445 313.288 48.8106 309.605C48.7368 309.345 48.6523 309.088 48.5679 308.827C45.3167 312.538 40.7485 314.836 35.8325 315.232Z" fill="white"/>
<path d="M472 42.5361H299.157V147.313H472V42.5361Z" fill="#F0F0F0"/>
<path d="M469.092 20.0846H228.226C228.078 20.0846 227.936 20.0258 227.832 19.9212C227.727 19.8165 227.668 19.6746 227.668 19.5267C227.668 19.3787 227.727 19.2368 227.832 19.1322C227.936 19.0275 228.078 18.9688 228.226 18.9688H469.092C469.239 18.9688 469.381 19.0275 469.486 19.1322C469.59 19.2368 469.649 19.3787 469.649 19.5267C469.649 19.6746 469.59 19.8165 469.486 19.9212C469.381 20.0258 469.239 20.0846 469.092 20.0846Z" fill="#CACACA"/>
<path d="M240.775 12.2739C244.163 12.2739 246.909 9.52627 246.909 6.13694C246.909 2.7476 244.163 0 240.775 0C237.388 0 234.642 2.7476 234.642 6.13694C234.642 9.52627 237.388 12.2739 240.775 12.2739Z" fill="#3F3D56"/>
<path d="M261.963 12.2739C265.35 12.2739 268.096 9.52627 268.096 6.13694C268.096 2.7476 265.35 0 261.963 0C258.575 0 255.83 2.7476 255.83 6.13694C255.83 9.52627 258.575 12.2739 261.963 12.2739Z" fill="#3F3D56"/>
<path d="M283.15 12.2739C286.537 12.2739 289.283 9.52627 289.283 6.13694C289.283 2.7476 286.537 0 283.15 0C279.763 0 277.017 2.7476 277.017 6.13694C277.017 9.52627 279.763 12.2739 283.15 12.2739Z" fill="#3F3D56"/>
<path d="M397.852 93.6471L387.331 82.7972C387.102 82.5656 386.827 82.3835 386.525 82.2619C386.222 82.1403 385.898 82.0818 385.572 82.0901H385.541C385.215 82.0818 384.891 82.1403 384.589 82.2619C384.286 82.3835 384.012 82.5656 383.782 82.7972L373.261 93.6471C372.811 94.0679 372.547 94.6503 372.526 95.2661C372.506 95.8819 372.73 96.4807 373.151 96.9308C373.186 96.9688 373.223 97.0056 373.261 97.0411C373.742 97.4917 374.377 97.7423 375.036 97.7423C375.694 97.7423 376.329 97.4917 376.81 97.0411L383.044 90.5202V107.333C383.073 107.98 383.351 108.592 383.819 109.04C384.287 109.487 384.909 109.737 385.557 109.737C386.204 109.737 386.827 109.487 387.295 109.04C387.763 108.592 388.04 107.98 388.069 107.333V90.5202L394.304 97.0411C394.785 97.4917 395.419 97.7423 396.078 97.7423C396.737 97.7423 397.371 97.4917 397.852 97.0411C398.302 96.6203 398.567 96.0379 398.587 95.4221C398.608 94.8063 398.383 94.2075 397.963 93.7574C397.927 93.7194 397.891 93.6826 397.852 93.6471Z" fill="white"/>
<path d="M385.578 120.776C380.695 120.776 375.921 119.327 371.86 116.612C367.8 113.897 364.635 110.038 362.766 105.523C360.897 101.009 360.408 96.0411 361.361 91.2484C362.314 86.4556 364.665 82.0533 368.119 78.5979C371.572 75.1425 375.971 72.7894 380.761 71.8361C385.551 70.8827 390.516 71.372 395.028 73.2421C399.539 75.1121 403.396 78.2789 406.109 82.3419C408.822 86.405 410.27 91.1819 410.27 96.0685C410.263 102.619 407.659 108.899 403.03 113.531C398.401 118.163 392.125 120.768 385.578 120.776V120.776ZM385.578 72.2764C380.876 72.2764 376.279 73.6718 372.368 76.2861C368.458 78.9004 365.411 82.6162 363.611 86.9637C361.811 91.3111 361.34 96.0949 362.258 100.71C363.175 105.325 365.44 109.565 368.765 112.892C372.091 116.219 376.327 118.485 380.94 119.403C385.552 120.321 390.333 119.85 394.678 118.049C399.022 116.249 402.736 113.199 405.348 109.287C407.961 105.374 409.356 100.774 409.356 96.0685C409.349 89.7606 406.841 83.7132 402.384 79.2528C397.926 74.7925 391.882 72.2836 385.578 72.2764V72.2764Z" fill="white"/>
<path d="M399.316 203.278H237.884C236.234 203.274 234.896 200.537 234.894 197.157V115.171C234.894 111.793 236.234 109.056 237.884 109.051H399.316C400.966 109.055 402.303 111.792 402.305 115.171V197.157C402.303 200.535 400.963 203.274 399.316 203.278Z" fill="white"/>
<path d="M289.8 155.636C297.597 155.636 303.917 149.312 303.917 141.511C303.917 133.71 297.597 127.386 289.8 127.386C282.004 127.386 275.684 133.71 275.684 141.511C275.684 149.312 282.004 155.636 289.8 155.636Z" fill="#3F3D56"/>
<path d="M334.068 185.038H264.818C264.731 185.039 264.645 185.032 264.559 185.017L297.313 128.252C297.513 127.898 297.803 127.604 298.153 127.399C298.504 127.194 298.903 127.086 299.309 127.086C299.715 127.086 300.113 127.194 300.464 127.399C300.815 127.604 301.105 127.898 301.305 128.252L323.285 166.346L324.339 168.168L334.068 185.038Z" fill="#00B0FF"/>
<path d="M372.624 185.039H312.728L324.334 168.17L325.169 166.955L340.294 144.971C340.561 144.635 340.896 144.359 341.277 144.161C341.659 143.963 342.077 143.847 342.506 143.821C342.935 143.796 343.364 143.861 343.766 144.012C344.168 144.164 344.534 144.398 344.84 144.7C344.918 144.786 344.99 144.876 345.057 144.971L372.624 185.039Z" fill="#00B0FF"/>
<path d="M399.316 203.278H237.884C236.234 203.274 234.896 200.537 234.894 197.157V115.171C234.894 111.793 236.234 109.056 237.884 109.051H399.316C400.966 109.055 402.303 111.792 402.305 115.171V197.157C402.303 200.535 400.963 203.274 399.316 203.278ZM237.884 111.499C236.893 111.499 236.091 113.144 236.09 115.171V197.157C236.09 199.184 236.893 200.827 237.884 200.829H399.316C400.306 200.829 401.108 199.184 401.11 197.157V115.171C401.11 113.144 400.306 111.501 399.316 111.499L237.884 111.499Z" fill="#E6E6E6"/>
<path d="M212.988 337H0.557559C0.409685 337 0.267867 336.941 0.163305 336.837C0.0587422 336.732 0 336.59 0 336.442C0 336.294 0.0587422 336.152 0.163305 336.048C0.267867 335.943 0.409685 335.884 0.557559 335.884H212.988C213.135 335.884 213.277 335.943 213.382 336.048C213.486 336.152 213.545 336.294 213.545 336.442C213.545 336.59 213.486 336.732 213.382 336.837C213.277 336.941 213.135 337 212.988 337Z" fill="#CACACA"/>
<path d="M149.399 115.688C144.149 108.29 133.762 107.945 133.762 107.945C133.762 107.945 123.641 106.866 117.148 118.133C111.096 128.634 119.623 141.688 119.623 141.688C121.308 141.789 128.595 141.833 150.279 139.153L151.251 133.91L154.038 138.691C155.197 138.549 156.402 138.403 157.662 138.251C157.092 132.687 154.45 122.806 149.399 115.688Z" fill="#2F2E41"/>
<path d="M161.774 219.193L160.383 171.322L150.914 175.467L155.483 219.712C154.498 220.476 153.787 221.538 153.454 222.74C153.121 223.942 153.185 225.219 153.637 226.382C154.089 227.544 154.904 228.529 155.961 229.191C157.017 229.852 158.259 230.154 159.501 230.051C160.744 229.949 161.919 229.448 162.854 228.622C163.788 227.797 164.431 226.692 164.686 225.471C164.942 224.25 164.796 222.98 164.272 221.848C163.747 220.717 162.871 219.786 161.774 219.193V219.193Z" fill="#FFB8B8"/>
<path d="M149.435 177.539C155.61 178.137 160.046 175.585 163.047 170.433L160.975 160.943C160.975 157.856 159.992 154.849 158.168 152.358C156.344 149.868 153.774 148.024 150.832 147.095L149.731 146.747L149.435 177.539Z" fill="#00BFA6"/>
<path d="M97.9229 164.376C97.8419 164.376 97.7611 164.368 97.6819 164.351L86.2585 164.158L86.2334 163.874L86.2339 163.862L87.1817 140.309C87.1923 140.069 87.2502 139.833 87.352 139.614C87.4539 139.396 87.5977 139.2 87.7752 139.038C87.9528 138.875 88.1607 138.749 88.3869 138.667C88.6132 138.585 88.8534 138.548 89.0939 138.558L98.2438 138.967C98.4841 138.977 98.7201 139.035 98.9381 139.137C99.1561 139.239 99.3518 139.383 99.5142 139.561C99.6766 139.739 99.8025 139.947 99.8846 140.173C99.9667 140.399 100.003 140.64 99.9927 140.88L99.0925 163.251C99.0802 163.553 98.9517 163.839 98.7337 164.049C98.5158 164.258 98.2253 164.376 97.9229 164.376L97.9229 164.376Z" fill="#00B0FF"/>
<path d="M96.6781 164.393C96.6489 164.393 96.6197 164.392 96.5904 164.391L87.6209 163.991C87.1117 163.967 86.6325 163.743 86.2885 163.366C85.9444 162.99 85.7636 162.492 85.7857 161.983L86.7439 140.478C86.7661 139.993 86.9799 139.536 87.3384 139.208C87.6969 138.88 88.1708 138.707 88.6561 138.728L97.8059 139.136C98.2912 139.159 98.7479 139.373 99.0758 139.731C99.4037 140.09 99.576 140.564 99.5549 141.05L98.5967 162.555C98.5746 163.049 98.3629 163.516 98.0056 163.858C97.6482 164.201 97.1728 164.392 96.6781 164.393V164.393Z" fill="#2F2E41"/>
<path d="M92.6619 145.656C93.3854 145.656 93.9718 145.069 93.9718 144.345C93.9718 143.621 93.3854 143.034 92.6619 143.034C91.9385 143.034 91.3521 143.621 91.3521 144.345C91.3521 145.069 91.9385 145.656 92.6619 145.656Z" fill="#00B0FF"/>
<path d="M103.551 170.228V178.872L95.2055 165.713C95.7986 164.698 96.048 163.518 95.9163 162.35C95.7846 161.182 95.2789 160.087 94.4748 159.23C93.6706 158.373 92.611 157.798 91.454 157.593C90.297 157.388 89.1047 157.562 88.0549 158.09C87.005 158.618 86.154 159.472 85.6287 160.524C85.1034 161.576 84.932 162.769 85.14 163.926C85.3481 165.083 85.9245 166.142 86.7832 166.945C87.6419 167.748 88.7368 168.251 89.9048 168.38L101.571 189.064C102.179 190.143 103.116 190.999 104.245 191.508C105.373 192.016 106.634 192.151 107.845 191.893C109.055 191.635 110.152 190.996 110.975 190.071C111.797 189.146 112.303 187.982 112.419 186.749L113.862 171.343L103.551 170.228Z" fill="#FFB8B8"/>
<path d="M114.977 176.92C109.161 177.483 104.984 175.079 102.158 170.228L104.108 161.29C104.108 158.382 105.035 155.55 106.752 153.205C108.47 150.86 110.89 149.123 113.661 148.248L114.698 147.92L114.977 176.92Z" fill="#00BFA6"/>
<path d="M128.461 331.818L122.097 330.784L123.052 305.734L132.443 307.259L128.461 331.818Z" fill="#FFB6B6"/>
<path d="M129.89 336.631L109.104 336.651L109.104 336.388C109.101 334.241 109.952 332.181 111.467 330.662C112.983 329.142 115.04 328.287 117.186 328.285H117.186L129.881 328.272L129.89 336.631Z" fill="#2F2E41"/>
<path d="M158.869 317.23L153.114 320.136L139.175 299.306L147.669 295.018L158.869 317.23Z" fill="#FFB6B6"/>
<path d="M163.152 322.071L144.594 331.44L144.476 331.206C143.509 329.289 143.343 327.066 144.015 325.027C144.686 322.988 146.139 321.299 148.054 320.331L148.055 320.331L159.389 314.609L163.152 322.071Z" fill="#2F2E41"/>
<path d="M133.049 139.527C139.299 139.527 144.365 134.457 144.365 128.204C144.365 121.951 139.299 116.881 133.049 116.881C126.8 116.881 121.733 121.951 121.733 128.204C121.733 134.457 126.8 139.527 133.049 139.527Z" fill="#FFB8B8"/>
<path d="M147.078 116.79L136.816 111.412L122.645 113.612L119.714 126.569C134.186 128.652 144.203 129.846 147.567 126.325L147.078 116.79Z" fill="#2F2E41"/>
<path d="M114.799 199.005C114.799 199.005 106.173 216.659 115.731 242.781L142.129 310.138L154.75 302.672L141.885 273.674L152.35 238.18C154.759 230.135 155.502 221.684 154.533 213.342C153.779 207.101 152.028 200.753 148.221 197.553C139.263 190.023 114.799 199.005 114.799 199.005Z" fill="#2F2E41"/>
<path d="M129.23 268.546L119.659 317.098L132.405 319.503L140.423 277.477L129.23 268.546Z" fill="#2F2E41"/>
<path d="M141.395 145.055L126.765 145.25L113.958 148.198L114.717 199.525C114.717 199.525 137.872 206.08 148.042 197.015L154.75 148.975C150.986 146.847 146.466 145.621 141.395 145.055Z" fill="#00BFA6"/>
<path d="M140.1 116.615C144.103 116.615 147.348 113.368 147.348 109.362C147.348 105.357 144.103 102.109 140.1 102.109C136.097 102.109 132.852 105.357 132.852 109.362C132.852 113.368 136.097 116.615 140.1 116.615Z" fill="#2F2E41"/>
<path d="M132.852 107.689C132.851 106.616 133.088 105.557 133.547 104.587C134.005 103.617 134.672 102.761 135.501 102.081C136.33 101.4 137.299 100.913 138.339 100.652C139.379 100.392 140.463 100.366 141.515 100.576C140.587 100.138 139.576 99.9024 138.55 99.8844C137.525 99.8665 136.507 100.067 135.564 100.472C134.621 100.877 133.775 101.478 133.082 102.235C132.389 102.992 131.864 103.888 131.543 104.863C131.222 105.838 131.111 106.87 131.219 107.891C131.326 108.913 131.649 109.899 132.166 110.786C132.683 111.673 133.383 112.439 134.218 113.035C135.054 113.631 136.006 114.043 137.012 114.243C135.769 113.658 134.717 112.731 133.981 111.571C133.244 110.41 132.852 109.064 132.852 107.689V107.689Z" fill="#2F2E41"/>
</g>
<defs>
<clipPath id="clip0_53_226">
<rect width="472" height="337" fill="white"/>
</clipPath>
</defs>
</svg>
