<svg width="16" height="16" viewBox="0 0 16 16" fill="none" xmlns="http://www.w3.org/2000/svg">
<g clip-path="url(#clip0_31_616)">
<path d="M10.8131 13.2819V12.0498C10.8131 11.3962 10.5535 10.7694 10.0913 10.3072C9.62918 9.84508 9.00237 9.58545 8.34879 9.58545H3.42014C2.76656 9.58545 2.13975 9.84508 1.67759 10.3072C1.21544 10.7694 0.955811 11.3962 0.955811 12.0498V13.2819" stroke="#3733ff" stroke-linecap="round" stroke-linejoin="round"/>
<path d="M5.88443 7.12104C7.24544 7.12104 8.34876 6.01772 8.34876 4.65671C8.34876 3.2957 7.24544 2.19238 5.88443 2.19238C4.52342 2.19238 3.4201 3.2957 3.4201 4.65671C3.4201 6.01772 4.52342 7.12104 5.88443 7.12104Z" stroke="#3733ff" stroke-linecap="round" stroke-linejoin="round"/>
<path d="M14.5096 13.2819V12.0498C14.5092 11.5037 14.3275 10.9733 13.993 10.5418C13.6584 10.1103 13.1901 9.80203 12.6614 9.66553" stroke="#3733ff" stroke-linecap="round" stroke-linejoin="round"/>
<path d="M10.197 2.27246C10.7271 2.40818 11.1969 2.71647 11.5325 3.14872C11.868 3.58097 12.0501 4.11259 12.0501 4.65978C12.0501 5.20696 11.868 5.73858 11.5325 6.17083C11.1969 6.60308 10.7271 6.91137 10.197 7.04709" stroke="#3733ff" stroke-linecap="round" stroke-linejoin="round"/>
</g>
<defs>
<clipPath id="clip0_31_616">
<rect width="14.786" height="14.786" fill="white" transform="translate(0.339722 0.344238)"/>
</clipPath>
</defs>
</svg>
