<svg width="561" height="390" viewBox="0 0 561 390" fill="none" xmlns="http://www.w3.org/2000/svg">
<path d="M111.776 390C173.507 390 223.551 386.202 223.551 381.518C223.551 376.833 173.507 373.035 111.776 373.035C50.0436 373.035 0 376.833 0 381.518C0 386.202 50.0436 390 111.776 390Z" fill="#E6E6E6"/>
<path d="M85.4392 86.5343C104.892 78.2673 129.12 83.5052 152.781 87.1405C153.001 82.7382 155.67 77.3803 152.874 74.3089C149.478 70.5775 149.791 66.6569 151.834 62.7136C157.061 52.6302 149.573 41.9009 142.012 32.9796C140.308 30.9733 138.154 29.3969 135.726 28.3785C133.298 27.3601 130.663 26.9284 128.036 27.1184L114.031 28.118C110.623 28.3612 107.37 29.6386 104.709 31.7793C102.047 33.92 100.103 36.8219 99.1372 40.0966V40.0966C95.7929 44.6412 94.003 49.1732 95.13 53.6815C90.1208 57.1019 89.2792 61.2307 91.5301 65.8852C93.4388 68.8158 93.4185 71.6684 91.4433 74.4422C88.8493 77.9785 86.8625 81.9216 85.5644 86.1098L85.4392 86.5343Z" fill="#2F2E41"/>
<path d="M547.706 337.149H151.244C147.719 337.149 144.337 335.749 141.844 333.258C139.351 330.767 137.951 327.389 137.951 323.866C281.668 307.177 422.685 307.177 561 323.866C561 327.389 559.599 330.767 557.106 333.258C554.613 335.749 551.232 337.149 547.706 337.149Z" fill="#2F2E41"/>
<path d="M561 324.647L137.951 323.866L186.981 241.434L187.215 241.044V59.374C187.215 57.169 187.65 54.9854 188.494 52.9482C189.339 50.9109 190.576 49.0598 192.137 47.5006C193.697 45.9413 195.55 44.7045 197.589 43.8608C199.628 43.017 201.813 42.5828 204.02 42.583H492.585C494.792 42.5828 496.977 43.017 499.016 43.8608C501.055 44.7045 502.907 45.9413 504.468 47.5006C506.028 49.0598 507.266 50.9109 508.111 52.9482C508.955 54.9854 509.39 57.169 509.39 59.374V242.294L561 324.647Z" fill="#3F3D56"/>
<path d="M203.637 54.3032C202.186 54.3049 200.794 54.8816 199.768 55.907C198.742 56.9323 198.165 58.3225 198.163 59.7726V225.417C198.165 226.867 198.742 228.257 199.768 229.283C200.794 230.308 202.186 230.885 203.637 230.886H495.314C496.765 230.885 498.156 230.308 499.183 229.282C500.209 228.257 500.786 226.867 500.788 225.417V59.7726C500.786 58.3226 500.209 56.9324 499.183 55.907C498.157 54.8817 496.765 54.3049 495.314 54.3032H203.637Z" fill="white"/>
<path d="M204.859 252.764C204.411 252.764 203.972 252.893 203.594 253.135C203.216 253.377 202.916 253.721 202.728 254.128L187.62 286.944C187.456 287.301 187.384 287.694 187.411 288.086C187.438 288.478 187.564 288.858 187.776 289.189C187.988 289.52 188.28 289.792 188.625 289.981C188.971 290.169 189.358 290.268 189.751 290.268H507.457C507.857 290.268 508.25 290.166 508.599 289.971C508.948 289.777 509.242 289.496 509.452 289.156C509.662 288.816 509.782 288.428 509.8 288.029C509.818 287.63 509.733 287.233 509.555 286.876L493.133 254.059C492.939 253.669 492.64 253.341 492.269 253.112C491.899 252.883 491.471 252.762 491.035 252.764H204.859Z" fill="#2F2E41"/>
<path d="M348.302 51.5687C350.246 51.5687 351.821 49.9945 351.821 48.0527C351.821 46.1108 350.246 44.5366 348.302 44.5366C346.359 44.5366 344.784 46.1108 344.784 48.0527C344.784 49.9945 346.359 51.5687 348.302 51.5687Z" fill="white"/>
<path d="M317.075 296.519C316.559 296.52 316.058 296.69 315.648 297.003C315.239 297.317 314.944 297.756 314.81 298.253L311.02 312.318C310.926 312.665 310.914 313.029 310.984 313.382C311.054 313.735 311.204 314.067 311.423 314.353C311.642 314.639 311.924 314.87 312.247 315.029C312.57 315.188 312.925 315.271 313.285 315.271H385.355C385.729 315.271 386.097 315.182 386.43 315.011C386.762 314.839 387.049 314.591 387.266 314.287C387.482 313.982 387.623 313.63 387.676 313.261C387.729 312.891 387.693 312.513 387.571 312.16L382.699 298.096C382.539 297.636 382.24 297.236 381.842 296.954C381.445 296.671 380.97 296.519 380.482 296.519H317.075Z" fill="#2F2E41"/>
<path d="M509.389 238.309V241.434H186.981L187.223 241.044V238.309H509.389Z" fill="#2F2E41"/>
<path d="M500.397 109.388C530.628 109.388 555.135 84.9005 555.135 54.6939C555.135 24.4873 530.628 0 500.397 0C470.166 0 445.658 24.4873 445.658 54.6939C445.658 84.9005 470.166 109.388 500.397 109.388Z" fill="#00BFA6"/>
<path d="M462.185 174.702H236.766C235.659 174.7 234.598 174.261 233.816 173.479C233.033 172.697 232.593 171.636 232.592 170.531V114.659C232.593 113.553 233.033 112.493 233.816 111.711C234.598 110.929 235.659 110.49 236.766 110.488H462.185C463.291 110.49 464.352 110.929 465.135 111.711C465.918 112.493 466.358 113.553 466.359 114.659V170.531C466.358 171.636 465.918 172.697 465.135 173.479C464.352 174.261 463.291 174.7 462.185 174.702V174.702ZM236.766 112.157C236.102 112.157 235.465 112.421 234.996 112.891C234.526 113.36 234.262 113.996 234.261 114.659V170.531C234.262 171.194 234.526 171.83 234.996 172.299C235.465 172.769 236.102 173.033 236.766 173.033H462.185C462.849 173.033 463.485 172.769 463.955 172.299C464.425 171.83 464.689 171.194 464.689 170.531V114.659C464.689 113.996 464.425 113.36 463.955 112.89C463.485 112.421 462.849 112.157 462.185 112.157L236.766 112.157Z" fill="#E6E6E6"/>
<path d="M271.792 157.442C281.183 157.442 288.796 149.835 288.796 140.451C288.796 131.067 281.183 123.46 271.792 123.46C262.4 123.46 254.787 131.067 254.787 140.451C254.787 149.835 262.4 157.442 271.792 157.442Z" fill="#E6E6E6"/>
<path d="M311.064 129.124C310.691 129.123 310.322 129.196 309.978 129.338C309.633 129.48 309.32 129.689 309.057 129.952C308.793 130.215 308.584 130.527 308.441 130.871C308.298 131.215 308.225 131.584 308.225 131.956C308.225 132.328 308.298 132.697 308.441 133.04C308.584 133.384 308.793 133.697 309.057 133.96C309.32 134.223 309.633 134.431 309.978 134.573C310.322 134.715 310.691 134.788 311.064 134.788H444.669C445.421 134.788 446.142 134.489 446.673 133.958C447.204 133.427 447.503 132.707 447.503 131.956C447.503 131.205 447.204 130.484 446.673 129.953C446.142 129.422 445.421 129.124 444.669 129.124H311.064Z" fill="#E6E6E6"/>
<path d="M311.064 146.114C310.312 146.114 309.591 146.413 309.06 146.944C308.528 147.475 308.229 148.195 308.229 148.946C308.229 149.697 308.528 150.417 309.06 150.948C309.591 151.479 310.312 151.778 311.064 151.778H368.554C369.306 151.778 370.027 151.479 370.558 150.948C371.09 150.417 371.388 149.697 371.388 148.946C371.388 148.195 371.09 147.475 370.558 146.944C370.027 146.413 369.306 146.114 368.554 146.114H311.064Z" fill="#E6E6E6"/>
<path d="M186.426 147.26L144.756 169.396L144.228 150.949C157.829 148.681 170.769 144.731 182.734 138.3L187.092 127.542C187.567 126.369 188.339 125.341 189.332 124.556C190.325 123.772 191.505 123.259 192.756 123.068C194.007 122.878 195.287 123.015 196.469 123.467C197.651 123.92 198.694 124.671 199.498 125.649V125.649C200.673 127.079 201.261 128.901 201.142 130.748C201.022 132.594 200.205 134.327 198.855 135.594L186.426 147.26Z" fill="#FFB8B8"/>
<path d="M84.6086 275.064C84.3046 273.95 84.24 272.785 84.4192 271.644C84.5983 270.503 85.0171 269.413 85.648 268.446L94.8018 254.409C96.9669 251.089 100.289 248.691 104.124 247.68C107.958 246.669 112.032 247.118 115.555 248.939V248.939C111.707 255.482 112.244 261.222 116.883 266.21C109.681 269.723 103.025 274.257 97.1201 279.672C96.0422 280.406 94.8042 280.873 93.5094 281.032C92.2147 281.191 90.9005 281.039 89.6764 280.589C88.4523 280.138 87.3538 279.401 86.4722 278.44C85.5907 277.479 84.9517 276.322 84.6086 275.064V275.064Z" fill="#2F2E41"/>
<path d="M188.324 256.711C186.939 259.018 184.984 260.93 182.646 262.265C180.308 263.599 177.666 264.31 174.974 264.331L114.162 264.791L111.525 249.507L138.426 241.601L115.745 224.209L140.536 195.221L185.564 237.155C188.196 239.606 189.906 242.886 190.409 246.445C190.911 250.005 190.175 253.629 188.324 256.711V256.711Z" fill="#2F2E41"/>
<path d="M104.668 361.24H90.4258C77.6388 273.661 64.6228 185.837 103.085 153.058L148.448 160.436L142.646 198.911L117.327 227.898L104.668 361.24Z" fill="#2F2E41"/>
<path d="M117.187 381.08C116.072 381.383 114.905 381.448 113.764 381.269C112.622 381.09 111.531 380.672 110.563 380.041L95.0993 377.964C91.7765 375.801 89.3762 372.482 88.3643 368.651C87.3524 364.819 87.801 360.749 89.623 357.229C96.1717 361.073 101.916 360.536 106.908 355.9C110.436 363.017 116.247 362.583 121.797 368.578C122.532 369.655 122.999 370.892 123.159 372.186C123.318 373.479 123.166 374.792 122.715 376.015C122.264 377.239 121.527 378.336 120.565 379.217C119.604 380.098 118.445 380.737 117.187 381.08V381.08Z" fill="#2F2E41"/>
<path d="M138.426 94.5555L112.052 88.231C116.432 79.2723 116.793 69.3038 114.69 58.7165L132.624 58.1895C133.186 71.3551 134.886 83.6551 138.426 94.5555Z" fill="#FFB8B8"/>
<path d="M145.674 176.305C126.475 189.377 112.91 176.752 102.558 157.274C103.996 145.355 101.667 131.091 97.3533 115.593C95.4349 108.757 96.1511 101.45 99.3607 95.1163C102.57 88.7823 108.04 83.8807 114.69 81.3794V81.3794L137.371 90.8662C156.63 106.552 160.421 123.542 153.195 141.463L145.674 176.305Z" fill="#00BFA6"/>
<path d="M90.4258 107.732L69.3269 118.8L106.778 140.936L111.989 153.779C112.336 154.636 112.506 155.555 112.487 156.48C112.467 157.405 112.26 158.316 111.876 159.158C111.493 160 110.942 160.755 110.258 161.378C109.573 162 108.768 162.477 107.893 162.778V162.778C106.898 163.121 105.837 163.229 104.794 163.094C103.75 162.958 102.752 162.584 101.878 161.999C101.003 161.414 100.276 160.634 99.7535 159.722C99.2309 158.809 98.9267 157.788 98.8649 156.738L98.338 147.787L50.7387 132.092C49.1349 131.563 47.6727 130.677 46.4626 129.5C45.2525 128.323 44.3264 126.886 43.7544 125.298V125.298C42.9205 122.984 42.8781 120.459 43.6337 118.118C44.3893 115.777 45.9002 113.752 47.9301 112.361L86.2061 86.123L90.4258 107.732Z" fill="#FFB8B8"/>
<path d="M111.525 109.84C102.725 105.987 94.7236 110.172 84.6237 113.529L83.0413 85.5957C93.07 80.2549 102.632 78.8149 111.525 82.9605L111.525 109.84Z" fill="#00BFA6"/>
<path d="M122.051 72.0258C131.351 72.0258 138.89 64.493 138.89 55.2009C138.89 45.9087 131.351 38.376 122.051 38.376C112.751 38.376 105.213 45.9087 105.213 55.2009C105.213 64.493 112.751 72.0258 122.051 72.0258Z" fill="#FFB8B8"/>
<path d="M142.195 53.078C125.524 54.7096 112.82 51.9852 104.701 44.228V37.981H140.781L142.195 53.078Z" fill="#2F2E41"/>
<path d="M520.6 55.5998C523.415 52.7852 524.996 48.9678 524.996 44.9873C524.996 41.0069 523.415 37.1895 520.6 34.3748C517.785 31.5602 513.968 29.979 509.987 29.979C506.007 29.979 502.19 31.5602 499.375 34.3748L482.5 51.2498V72.4998H503.75L520.6 55.5998Z" stroke="white" stroke-width="3" stroke-linecap="round" stroke-linejoin="round"/>
<path d="M510 45L475 80" stroke="white" stroke-width="3" stroke-linecap="round" stroke-linejoin="round"/>
<path d="M513.75 62.5H492.5" stroke="white" stroke-width="3" stroke-linecap="round" stroke-linejoin="round"/>
</svg>
